<svg width="70" height="70" viewBox="0 0 70 70" fill="none" xmlns="http://www.w3.org/2000/svg">
<path d="M30.7077 39.307C16.0397 37.9431 5.72998 26.2314 5.72998 11.2061" stroke="black" stroke-width="2.3301" stroke-miterlimit="10" stroke-linecap="round" stroke-linejoin="round"/>
<path d="M63.3469 11.2061C63.3469 26.207 52.5023 38.043 37.8696 39.4396" stroke="black" stroke-width="2.3301" stroke-miterlimit="10" stroke-linecap="round" stroke-linejoin="round"/>
<path d="M37.3667 39.3032H58.1968" stroke="black" stroke-width="2.3301" stroke-miterlimit="10" stroke-linecap="round" stroke-linejoin="round"/>
<path d="M11.0554 39.3032L30.7077 39.3066" stroke="black" stroke-width="2.3301" stroke-miterlimit="10" stroke-linecap="round" stroke-linejoin="round"/>
<path d="M34.5905 47.4595L42.4577 57.9519C42.4577 57.9519 37.2124 57.9634 37.2145 63.2039H31.9624C31.9645 57.9628 26.7192 57.9519 26.7192 57.9519L34.5864 47.4595H34.5905Z" stroke="black" stroke-width="2.3301" stroke-miterlimit="10" stroke-linecap="round" stroke-linejoin="round"/>
<path d="M10.9773 37V41.7946" stroke="black" stroke-width="2.3301" stroke-miterlimit="10" stroke-linecap="round" stroke-linejoin="round"/>
<path d="M58.8418 37V41.7946" stroke="black" stroke-width="2.3301" stroke-miterlimit="10" stroke-linecap="round" stroke-linejoin="round"/>
<path d="M8.82424 4.71973H2.71045V10.7852H8.82424V4.71973Z" stroke="black" stroke-width="2.3301" stroke-miterlimit="10" stroke-linecap="round" stroke-linejoin="round"/>
<path d="M66.4458 4.71973H60.332V10.7852H66.4458V4.71973Z" stroke="black" stroke-width="2.3301" stroke-miterlimit="10" stroke-linecap="round" stroke-linejoin="round"/>
<path d="M37.0886 36.2651H30.9749V42.3306H37.0886V36.2651Z" stroke="black" stroke-width="2.3301" stroke-miterlimit="10" stroke-linecap="round" stroke-linejoin="round"/>
</svg>
