<svg width="65" height="59" viewBox="0 0 65 59" fill="none" xmlns="http://www.w3.org/2000/svg">
<path d="M33.1949 8.03223C25.8582 8.03223 19.8894 14.1935 19.8894 21.7673C19.8894 29.3411 25.8582 35.5024 33.1949 35.5024C40.5316 35.5024 46.5005 29.3404 46.5005 21.7673C46.5005 14.1942 40.5316 8.03223 33.1949 8.03223ZM44.3604 20.7901L39.4742 20.7768C39.3375 16.4772 38.3198 12.8752 36.7761 10.7435C40.9209 12.2 43.9824 16.1013 44.3604 20.7901ZM33.3784 32.7848C31.5885 32.7848 29.5998 28.6003 29.3759 22.8429L37.3802 22.8645C37.1521 28.6115 35.1662 32.7848 33.3784 32.7848ZM29.3745 20.7503C29.5873 14.9622 31.5822 10.7491 33.3784 10.7491C35.1766 10.7491 37.1737 14.9734 37.3823 20.7719L29.3745 20.7503ZM30.1062 10.5838C28.4977 12.6862 27.4284 16.3454 27.2833 20.7447L22.0322 20.7308C22.4466 15.8836 25.7313 11.8896 30.1062 10.5838ZM22.0336 22.8234L27.2847 22.8373C27.4354 27.2157 28.5033 30.8562 30.1069 32.9501C25.7376 31.6472 22.4549 27.6615 22.0336 22.8234ZM36.7754 32.7904C38.3058 30.6776 39.32 27.1209 39.4714 22.8701L44.3535 22.8834C43.9273 27.5108 40.8797 31.3486 36.7754 32.7904Z" fill="black"/>
<path d="M58.6208 0.273438H7.10621C3.66595 0.273438 0.867432 3.07472 0.867432 6.51704V37.4833C0.867432 40.9235 3.66595 43.722 7.10621 43.722H14.0174V57.1732C14.0174 57.5875 14.2616 57.9628 14.6403 58.1302C14.7763 58.1902 14.92 58.2195 15.063 58.2195C15.3183 58.2195 15.5708 58.126 15.7668 57.9474L31.4245 43.7213H58.6201C62.0631 43.7213 64.8638 40.9221 64.8638 37.4826V6.51704C64.8645 3.07403 62.0631 0.273438 58.6208 0.273438ZM62.7719 37.4833C62.7719 39.7691 60.9094 41.6294 58.6208 41.6294H31.0206C30.7604 41.6294 30.51 41.7263 30.3168 41.9014L16.11 54.8092V42.6757C16.11 42.0981 15.642 41.6294 15.0637 41.6294H7.10621C4.82038 41.6294 2.96005 39.7691 2.96005 37.4833V6.51704C2.96005 4.22844 4.82038 2.36603 7.10621 2.36603H58.6208C60.9094 2.36603 62.7719 4.22844 62.7719 6.51704V37.4833Z" fill="black"/>
</svg>
