<svg width="70" height="70" viewBox="0 0 70 70" fill="none" xmlns="http://www.w3.org/2000/svg">
<path d="M34.2532 35.1821C25.7663 35.1821 18.8613 42.0863 18.8613 50.5731C18.8613 51.1507 19.3294 51.6194 19.9076 51.6194H48.5981C49.1756 51.6194 49.6444 51.1507 49.6444 50.5731C49.6444 42.0863 42.7394 35.1821 34.2532 35.1821ZM20.9951 49.5268C21.5308 42.6813 27.2729 37.2747 34.2532 37.2747C41.2335 37.2747 46.9756 42.6813 47.5106 49.5268H20.9951Z" fill="black"/>
<path d="M34.002 33.8001C38.9845 33.8001 43.0379 29.7468 43.0379 24.7643C43.0379 19.7819 38.9838 15.7285 34.002 15.7285C29.0195 15.7285 24.9661 19.7819 24.9661 24.7643C24.9661 29.7468 29.0195 33.8001 34.002 33.8001ZM34.002 17.8211C37.8301 17.8211 40.9453 20.9356 40.9453 24.7643C40.9453 28.5924 37.8301 31.7076 34.002 31.7076C30.1732 31.7076 27.0587 28.5931 27.0587 24.7643C27.0587 20.9356 30.1732 17.8211 34.002 17.8211Z" fill="black"/>
<path d="M13.7972 40.9554C15.5138 40.9554 17.1998 41.413 18.673 42.2793C19.171 42.5737 19.8127 42.4056 20.105 41.9082C20.398 41.4102 20.232 40.7684 19.7332 40.4755C17.9392 39.4201 15.8863 38.8628 13.7972 38.8628C7.34007 38.8628 2.08691 44.1159 2.08691 50.5729C2.08691 51.1505 2.55496 51.6192 3.13322 51.6192H16.3948C16.9731 51.6192 17.4411 51.1505 17.4411 50.5729C17.4411 49.9954 16.9731 49.5266 16.3948 49.5266H4.23603C4.75918 44.7137 8.84745 40.9554 13.7972 40.9554Z" fill="black"/>
<path d="M13.6116 37.1923C17.4627 37.1923 20.5968 34.059 20.5968 30.2072C20.5968 26.3555 17.4634 23.2222 13.6116 23.2222C9.7598 23.2222 6.62646 26.3555 6.62646 30.2072C6.62646 34.0583 9.7598 37.1923 13.6116 37.1923ZM13.6116 25.3148C16.309 25.3148 18.5041 27.5092 18.5041 30.2072C18.5041 32.9046 16.3097 35.0997 13.6116 35.0997C10.9135 35.0997 8.71908 32.9053 8.71908 30.2072C8.71908 27.5092 10.9135 25.3148 13.6116 25.3148Z" fill="black"/>
<path d="M54.7935 38.8628C52.7051 38.8628 50.6523 39.4208 48.8575 40.4755C48.3588 40.7684 48.1927 41.4095 48.4857 41.9075C48.7787 42.4069 49.4218 42.5723 49.9178 42.2793C51.3917 41.413 53.0776 40.9554 54.7935 40.9554C59.7433 40.9554 63.8315 44.7137 64.3547 49.5266H52.198C51.6204 49.5266 51.1517 49.9954 51.1517 50.5729C51.1517 51.1505 51.6204 51.6192 52.198 51.6192H65.4575C66.0351 51.6192 66.5038 51.1505 66.5038 50.5729C66.5038 44.1159 61.2507 38.8628 54.7935 38.8628Z" fill="black"/>
<path d="M54.9797 37.1923C58.8308 37.1923 61.9649 34.059 61.9649 30.2072C61.9649 26.3555 58.8315 23.2222 54.9797 23.2222C51.1279 23.2222 47.9939 26.3555 47.9939 30.2072C47.9946 34.0583 51.1279 37.1923 54.9797 37.1923ZM54.9797 25.3148C57.6771 25.3148 59.8723 27.5092 59.8723 30.2072C59.8723 32.9046 57.6778 35.0997 54.9797 35.0997C52.2817 35.0997 50.0865 32.9053 50.0865 30.2072C50.0872 27.5092 52.2817 25.3148 54.9797 25.3148Z" fill="black"/>
</svg>
