<svg width="70" height="70" viewBox="0 0 70 70" fill="none" xmlns="http://www.w3.org/2000/svg">
<path d="M58.8687 5.49756H11.132C10.5537 5.49756 10.0857 5.96561 10.0857 6.54387V63.4567C10.0857 64.0342 10.5537 64.503 11.132 64.503H58.8694C59.447 64.503 59.9157 64.0342 59.9157 63.4567V6.54387C59.915 5.96561 59.4463 5.49756 58.8687 5.49756ZM57.8224 62.4097H12.1783V7.59017H57.8231L57.8224 62.4097Z" fill="#273043"/>
<path d="M17.6156 28.0237H52.7018C53.2801 28.0237 53.7481 27.555 53.7481 26.9774V12.7065C53.7481 12.1282 53.2801 11.6602 52.7018 11.6602H17.6156C17.0374 11.6602 16.5693 12.1282 16.5693 12.7065V26.9767C16.5693 27.555 17.0374 28.0237 17.6156 28.0237ZM18.6619 13.7535H51.6555V25.9311H18.6619V13.7535Z" fill="#273043"/>
<path d="M25.0889 33.1167H17.9838C17.4055 33.1167 16.9375 33.5854 16.9375 34.163V41.2688C16.9375 41.8464 17.4055 42.3151 17.9838 42.3151H25.0889C25.6672 42.3151 26.1352 41.8464 26.1352 41.2688V34.163C26.1352 33.5854 25.6665 33.1167 25.0889 33.1167ZM24.0426 40.2225H19.0301V35.2093H24.0426V40.2225Z" fill="#273043"/>
<path d="M25.0889 46.8848H17.9838C17.4055 46.8848 16.9375 47.3535 16.9375 47.9311V55.0362C16.9375 55.6138 17.4055 56.0825 17.9838 56.0825H25.0889C25.6672 56.0825 26.1352 55.6138 26.1352 55.0362V47.9311C26.1352 47.3528 25.6665 46.8848 25.0889 46.8848ZM24.0426 53.9899H19.0301V48.9767H24.0426V53.9899Z" fill="#273043"/>
<path d="M52.3329 33.1167H45.2284C44.6502 33.1167 44.1821 33.5854 44.1821 34.163V41.2688C44.1821 41.8464 44.6502 42.3151 45.2284 42.3151H52.3336C52.9118 42.3151 53.3799 41.8464 53.3799 41.2688V34.163C53.3792 33.5854 52.9111 33.1167 52.3329 33.1167ZM51.2866 40.2225H46.2747V35.2093H51.2872L51.2866 40.2225Z" fill="#273043"/>
<path d="M52.3329 46.8848H45.2284C44.6502 46.8848 44.1821 47.3535 44.1821 47.9311V55.0362C44.1821 55.6138 44.6502 56.0825 45.2284 56.0825H52.3336C52.9118 56.0825 53.3799 55.6138 53.3799 55.0362V47.9311C53.3792 47.3528 52.9111 46.8848 52.3329 46.8848ZM51.2866 53.9899H46.2747V48.9767H51.2872L51.2866 53.9899Z" fill="#273043"/>
<path d="M38.9443 32.8828H31.8412C31.263 32.8828 30.7949 33.3516 30.7949 33.9291V41.0349C30.7949 41.6125 31.263 42.0812 31.8412 42.0812H38.9443C39.5225 42.0812 39.9906 41.6125 39.9906 41.0349V33.9291C39.9906 33.3516 39.5218 32.8828 38.9443 32.8828ZM37.898 39.9886H32.8875V34.9754H37.898V39.9886Z" fill="#273043"/>
<path d="M38.9443 46.6504H31.8412C31.263 46.6504 30.7949 47.1191 30.7949 47.6967V54.8032C30.7949 55.3808 31.263 55.8495 31.8412 55.8495H38.9443C39.5225 55.8495 39.9906 55.3808 39.9906 54.8032V47.6967C39.9906 47.1191 39.5218 46.6504 38.9443 46.6504ZM37.898 53.7562H32.8875V48.7423H37.898V53.7562Z" fill="#273043"/>
</svg>
