<svg width="70" height="70" viewBox="0 0 70 70" fill="none" xmlns="http://www.w3.org/2000/svg">
<path d="M66.1414 32.8306C65.6852 31.0519 64.5635 29.5585 62.9836 28.6245C61.4016 27.6898 59.551 27.4282 57.7723 27.8858C54.4472 28.7417 52.3232 31.9043 52.6531 35.221L45.6896 37.0144C45.7628 36.4933 45.8137 35.9653 45.8137 35.424C45.8137 29.1316 40.6945 24.0124 34.402 24.0124C33.9403 24.0124 33.4875 24.048 33.0397 24.1017L35.0591 18.0715C35.4483 18.1392 35.8403 18.1755 36.2317 18.1755C37.2808 18.1755 38.3229 17.9327 39.289 17.4514C40.9324 16.6332 42.1586 15.2228 42.7425 13.4811C43.945 9.8867 42.0003 5.98262 38.4073 4.77868C34.8143 3.57614 30.9088 5.52086 29.7041 9.11593C28.6139 12.3706 30.1129 15.8729 33.0767 17.3998L30.7127 24.4609C30.6918 24.5244 30.6779 24.5886 30.6695 24.6527C26.3789 26.1441 23.254 30.1214 23.0196 34.8562L17.0354 32.848C17.6025 29.5634 15.7115 26.2564 12.4575 25.1647C10.715 24.5802 8.85191 24.7092 7.20851 25.5267C5.56372 26.3442 4.33675 27.7533 3.75361 29.4936C2.54756 33.0866 4.48951 36.9921 8.08253 38.2002C8.80517 38.4422 9.53968 38.5573 10.263 38.5573C12.7986 38.5573 15.1869 37.1406 16.3762 34.8346L23.1284 37.1002C23.9431 42.5995 28.6808 46.837 34.4034 46.837C34.8617 46.837 35.3116 46.8021 35.7552 46.7498L33.2176 51.9053C31.8302 51.4658 30.3465 51.4707 28.9452 51.9478C27.2076 52.5386 25.8035 53.7719 24.9922 55.4194C24.1803 57.067 24.0582 58.9315 24.6497 60.6697C25.2406 62.4087 26.4738 63.8128 28.1228 64.624C29.0812 65.0963 30.1136 65.3341 31.1515 65.3341C31.8972 65.3341 32.6463 65.2114 33.3738 64.9637C35.1121 64.3715 36.5163 63.139 37.3261 61.4928C38.1387 59.8439 38.2601 57.9787 37.6686 56.2411C37.1908 54.8391 36.2903 53.6609 35.0961 52.8295L38.3836 46.1499C38.3912 46.1339 38.3947 46.1172 38.4017 46.1004C41.512 44.9314 43.9736 42.4481 45.1148 39.3246L53.1749 37.2487C53.7454 38.5873 54.715 39.7096 55.9915 40.4637C57.0643 41.097 58.2606 41.4214 59.4743 41.4214C60.0491 41.4214 60.628 41.3488 61.2 41.2017C62.9801 40.7434 64.4736 39.6204 65.4069 38.0397C66.3388 36.4584 66.6004 34.6086 66.1414 32.8306ZM31.6879 9.78138C32.5263 7.28143 35.2398 5.92612 37.7425 6.76386C40.2418 7.60089 41.5936 10.3171 40.7573 12.8177C40.352 14.0293 39.4989 15.0101 38.3564 15.5793C37.2131 16.1477 35.9178 16.2384 34.7061 15.8325C32.2048 14.994 30.8516 12.2799 31.6879 9.78138ZM35.4476 60.5679C34.8833 61.7132 33.9075 62.5712 32.6979 62.9828C31.4905 63.3943 30.1917 63.3113 29.047 62.747C27.8996 62.1827 27.0423 61.2061 26.6308 59.9966C26.2199 58.7878 26.305 57.4904 26.87 56.3437C27.435 55.1969 28.4109 54.3396 29.619 53.9288C30.1233 53.7572 30.6423 53.6721 31.1599 53.6721C31.8832 53.6721 32.6024 53.8381 33.2699 54.1674C33.2706 54.1674 33.2706 54.1674 33.2706 54.1674C34.4174 54.7317 35.2753 55.7075 35.6862 56.9156C36.097 58.1231 36.0126 59.4205 35.4476 60.5679ZM8.74798 36.2164C6.248 35.3766 4.89687 32.659 5.73671 30.159C6.14267 28.9488 6.99646 27.9688 8.13972 27.4003C8.81215 27.0662 9.53619 26.8974 10.2651 26.8974C10.7771 26.8974 11.2919 26.9804 11.7913 27.1478C14.2892 27.9862 15.6403 30.7017 14.8026 33.2017C13.9628 35.7023 11.2493 37.0555 8.74798 36.2164ZM34.4027 44.7444C29.264 44.7444 25.0836 40.5634 25.0836 35.424C25.0836 30.2853 29.264 26.105 34.4027 26.105C39.5415 26.105 43.7218 30.2853 43.7218 35.424C43.7218 40.5634 39.5415 44.7444 34.4027 44.7444ZM63.6037 36.9753C62.9543 38.0746 61.915 38.8559 60.6769 39.1746C59.4415 39.4927 58.1553 39.3113 57.0553 38.6619C55.9552 38.0125 55.1747 36.9732 54.8566 35.7358C54.1995 33.1821 55.7425 30.5706 58.2955 29.9135C58.6938 29.811 59.0969 29.7601 59.498 29.7601C60.342 29.7601 61.1742 29.9861 61.9206 30.4269C63.0192 31.0763 63.799 32.1149 64.1157 33.3509C64.1157 33.3509 64.1164 33.3516 64.1164 33.3523C64.4338 34.5891 64.2524 35.876 63.6037 36.9753Z" fill="black"/>
</svg>
