<svg width="70" height="70" viewBox="0 0 70 70" fill="none" xmlns="http://www.w3.org/2000/svg">
<path d="M58.5048 3.39111H11.2522C7.01814 3.39111 3.573 6.83622 3.573 11.0702V43.5905C3.573 47.8238 7.01744 51.2682 11.2522 51.2682H28.0405V64.2702H15.028C14.4497 64.2702 13.9817 64.7383 13.9817 65.3165C13.9817 65.8948 14.4497 66.3628 15.028 66.3628H29.0868H40.6694H54.7283C55.3066 66.3628 55.7746 65.8948 55.7746 65.3165C55.7746 64.7383 55.3066 64.2702 54.7283 64.2702H41.7158V51.2682H58.5041C62.7368 51.2682 66.1805 47.8238 66.1805 43.5905V11.0702C66.1812 6.83622 62.7374 3.39111 58.5048 3.39111ZM11.2522 5.48371H58.5048C61.5837 5.48371 64.0886 7.98993 64.0886 11.0702V35.728H5.66631V11.0702C5.66631 7.98924 8.17186 5.48371 11.2522 5.48371ZM39.6238 64.2702H30.1338V51.2682H39.6238V64.2702ZM58.5048 49.1756H40.6701H29.0875H11.2529C8.17256 49.1756 5.66631 46.6701 5.66631 43.5905V37.8212H64.0886V43.5905C64.0886 46.6701 61.5837 49.1756 58.5048 49.1756Z" fill="black"/>
<path d="M34.8786 39.7979C32.7183 39.7979 30.9612 41.5542 30.9612 43.7124C30.9612 45.8706 32.7183 47.6269 34.8786 47.6269C37.0374 47.6269 38.7931 45.8706 38.7931 43.7124C38.7931 41.5542 37.0374 39.7979 34.8786 39.7979ZM34.8786 45.5343C33.8727 45.5343 33.0538 44.7168 33.0538 43.7124C33.0538 42.708 33.872 41.8904 34.8786 41.8904C35.883 41.8904 36.7005 42.708 36.7005 43.7124C36.7005 44.7168 35.883 45.5343 34.8786 45.5343Z" fill="black"/>
</svg>
