<svg width="161" height="64" viewBox="0 0 161 64" fill="none" xmlns="http://www.w3.org/2000/svg">
<g opacity="0.85">
<path d="M47.1725 23.4828C47.4441 23.4013 47.8652 23.3199 48.4356 23.2384C49.0332 23.1569 49.6444 23.1161 50.2692 23.1161C50.8668 23.1161 51.3964 23.1569 51.8582 23.2384C52.3472 23.3199 52.7546 23.4828 53.0806 23.7273C53.4066 23.9718 53.651 24.3113 53.814 24.746C54.0042 25.1534 54.0992 25.6967 54.0992 26.3758V35.1361C54.0992 36.2498 54.3709 37.0511 54.9142 37.5401C55.4574 38.0019 56.2452 38.2328 57.2774 38.2328C57.9022 38.2328 58.4047 38.1784 58.785 38.0698C59.1924 37.9611 59.5048 37.8525 59.7221 37.7438V23.4828C59.9938 23.4013 60.4148 23.3199 60.9853 23.2384C61.5829 23.1569 62.194 23.1161 62.8188 23.1161C63.4164 23.1161 63.9461 23.1569 64.4079 23.2384C64.8968 23.3199 65.3043 23.4828 65.6303 23.7273C65.9562 23.9718 66.2007 24.3113 66.3637 24.746C66.5538 25.1534 66.6489 25.6967 66.6489 26.3758V38.7625C66.6489 40.1206 66.0785 41.1393 64.9376 41.8184C63.9869 42.416 62.846 42.8642 61.5149 43.163C60.2111 43.4889 58.785 43.6519 57.2367 43.6519C55.7698 43.6519 54.4116 43.4889 53.1621 43.163C51.9397 42.837 50.8803 42.3345 49.9839 41.6554C49.0875 40.9763 48.3949 40.1071 47.9059 39.0477C47.417 37.9611 47.1725 36.6573 47.1725 35.1361V23.4828ZM77.6515 43.1222C76.4835 43.1222 75.5599 42.7827 74.8808 42.1036C74.2017 41.4245 73.8622 40.5009 73.8622 39.3329V18.2674C74.161 18.2131 74.6363 18.1452 75.2882 18.0637C75.9402 17.955 76.5649 17.9007 77.1625 17.9007C77.7873 17.9007 78.3306 17.955 78.7924 18.0637C79.2813 18.1452 79.6888 18.3081 80.0147 18.5526C80.3407 18.7971 80.5852 19.1366 80.7482 19.5713C80.9111 20.0059 80.9926 20.5763 80.9926 21.2826V37.3771H90.3234C90.5135 37.6759 90.6901 38.0834 90.8531 38.5995C91.0161 39.0884 91.0976 39.6045 91.0976 40.1478C91.0976 41.2344 90.8667 42.0085 90.4049 42.4703C89.9431 42.9049 89.3319 43.1222 88.5713 43.1222H77.6515ZM96.5043 17.697C96.5043 16.6647 96.8439 15.7955 97.523 15.0892C98.2292 14.383 99.1528 14.0298 100.294 14.0298C101.435 14.0298 102.345 14.383 103.024 15.0892C103.73 15.7955 104.083 16.6647 104.083 17.697C104.083 18.7292 103.73 19.5984 103.024 20.3047C102.345 21.0109 101.435 21.3641 100.294 21.3641C99.1528 21.3641 98.2292 21.0109 97.523 20.3047C96.8439 19.5984 96.5043 18.7292 96.5043 17.697ZM103.757 42.9593C103.458 43.0136 103.01 43.0815 102.412 43.163C101.842 43.2716 101.258 43.326 100.66 43.326C100.063 43.326 99.5195 43.2852 99.0305 43.2037C98.5688 43.1222 98.1749 42.9593 97.8489 42.7148C97.523 42.4703 97.2649 42.1443 97.0748 41.7369C96.9118 41.3023 96.8303 40.7454 96.8303 40.0663V23.4828C97.1291 23.4285 97.5637 23.3606 98.1341 23.2791C98.7317 23.1705 99.3293 23.1161 99.9269 23.1161C100.525 23.1161 101.054 23.1569 101.516 23.2384C102.005 23.3199 102.412 23.4828 102.738 23.7273C103.064 23.9718 103.309 24.3113 103.472 24.746C103.662 25.1534 103.757 25.6967 103.757 26.3758V42.9593ZM123.161 30.4503C123.161 29.6083 122.917 28.9971 122.428 28.6168C121.966 28.2093 121.328 28.0056 120.513 28.0056C119.969 28.0056 119.426 28.0735 118.883 28.2093C118.367 28.3452 117.919 28.5489 117.538 28.8205V42.9593C117.267 43.0407 116.832 43.1222 116.234 43.2037C115.664 43.2852 115.066 43.326 114.442 43.326C113.844 43.326 113.301 43.2852 112.812 43.2037C112.35 43.1222 111.956 42.9593 111.63 42.7148C111.304 42.4703 111.046 42.1443 110.856 41.7369C110.693 41.3023 110.612 40.7454 110.612 40.0663V27.8426C110.612 27.1092 110.761 26.5116 111.06 26.0498C111.386 25.588 111.82 25.167 112.364 24.7867C113.287 24.1348 114.442 23.6051 115.827 23.1976C117.239 22.7902 118.801 22.5864 120.513 22.5864C123.582 22.5864 125.945 23.2655 127.602 24.6237C129.259 25.9547 130.088 27.8155 130.088 30.2059V42.9593C129.816 43.0407 129.382 43.1222 128.784 43.2037C128.214 43.2852 127.616 43.326 126.991 43.326C126.394 43.326 125.85 43.2852 125.361 43.2037C124.9 43.1222 124.506 42.9593 124.18 42.7148C123.854 42.4703 123.596 42.1443 123.406 41.7369C123.243 41.3023 123.161 40.7454 123.161 40.0663V30.4503ZM156.165 39.4144C156.03 40.6911 155.649 41.669 155.025 42.3481C154.427 43.0272 153.544 43.3667 152.376 43.3667C151.507 43.3667 150.733 43.163 150.054 42.7555C149.375 42.3209 148.641 41.6011 147.853 40.596L143.82 35.5435V42.9593C143.521 43.0136 143.073 43.0815 142.475 43.163C141.905 43.2716 141.32 43.326 140.723 43.326C140.125 43.326 139.582 43.2852 139.093 43.2037C138.631 43.1222 138.237 42.9593 137.911 42.7148C137.585 42.4703 137.327 42.1443 137.137 41.7369C136.974 41.3023 136.893 40.7454 136.893 40.0663V16.4746C137.192 16.3931 137.626 16.3116 138.197 16.2301C138.794 16.1215 139.392 16.0671 139.989 16.0671C140.587 16.0671 141.117 16.1079 141.579 16.1894C142.067 16.2709 142.475 16.4338 142.801 16.6783C143.127 16.9228 143.371 17.2623 143.534 17.697C143.724 18.1044 143.82 18.6477 143.82 19.3268V30.0836L150.828 22.9124C152.24 22.9124 153.368 23.2248 154.21 23.8495C155.079 24.4743 155.514 25.2621 155.514 26.2128C155.514 26.6203 155.446 27.0005 155.31 27.3537C155.174 27.6796 154.957 28.0192 154.658 28.3723C154.386 28.7254 154.02 29.1057 153.558 29.5132C153.123 29.8935 152.607 30.3417 152.009 30.8578L149.646 32.8951L156.165 39.4144Z" fill="white"/>
<rect x="1.41797" y="19.1504" width="17.0493" height="14.401" rx="2.31764" fill="white"/>
<path d="M12.3526 42.7829C-2.28854 42.7829 1.28508 23.8277 1.43987 19.1504H8.83081C5.7647 33.7643 16.034 39.4932 16.2997 39.8736C16.4286 40.0583 16.7151 41.4737 16.2997 42.7829H12.3526Z" fill="url(#paint0_linear_516_7888)"/>
<rect x="40.5981" y="42.7827" width="17.0378" height="14.401" rx="2.05576" transform="rotate(180 40.5981 42.7827)" fill="white"/>
<path d="M31.2514 19.1503C43.869 19.1503 40.7893 38.1055 40.6559 42.7827L34.2864 42.7827C37.2162 27.4987 28.2982 21.8426 28.0692 21.4621C27.9581 21.2775 27.5372 21.719 27.8498 19.1503L31.2514 19.1503Z" fill="white"/>
</g>
<defs>
<linearGradient id="paint0_linear_516_7888" x1="8.73148" y1="19.1504" x2="8.73148" y2="42.7829" gradientUnits="userSpaceOnUse">
<stop stop-color="white"/>
<stop offset="1" stop-color="#E6E6E6"/>
</linearGradient>
</defs>
</svg>
