<svg width="40" height="40" viewBox="0 0 40 40" fill="none" xmlns="http://www.w3.org/2000/svg">
<rect width="40" height="40" rx="8" fill="white"/>
<path d="M20.4874 27.7555L15.9738 27.6711C14.5125 27.6417 13.0474 27.7004 11.6147 27.3959C9.43519 26.9409 9.28079 24.7098 9.11922 22.8385C8.89659 20.2075 8.98278 17.5288 9.4029 14.9199C9.64007 13.456 10.5734 12.5824 12.0169 12.4874C16.8895 12.1424 21.7945 12.1833 26.6563 12.3442C27.1698 12.359 27.6868 12.4396 28.1931 12.5314C30.6923 12.9791 30.7533 15.5073 30.9153 17.6356C31.0768 19.7859 31.0086 21.9471 30.6998 24.0828C30.452 25.851 29.978 27.3338 27.9776 27.4769C25.4712 27.6641 23.0223 27.8148 20.5089 27.7668C20.509 27.7555 20.4946 27.7555 20.4874 27.7555ZM17.8339 23.2788C19.7226 22.1706 21.5754 21.0808 23.4534 19.98C21.5611 18.8718 19.7118 17.782 17.8339 16.6812V23.2788Z" fill="#2B3752"/>
</svg>
