<svg width="40" height="40" viewBox="0 0 40 40" fill="none" xmlns="http://www.w3.org/2000/svg">
<rect width="40" height="40" rx="8" fill="#F2F1FA"/>
<path fill-rule="evenodd" clip-rule="evenodd" d="M10 20C10 16.0054 10 14.0081 10.9519 12.5695C11.3769 11.9271 11.9271 11.3769 12.5695 10.9519C14.0081 10 16.0054 10 20 10C23.9946 10 25.9919 10 27.4305 10.9519C28.0729 11.3769 28.6231 11.9271 29.0481 12.5695C30 14.0081 30 16.0054 30 20C30 23.9946 30 25.9919 29.0481 27.4305C28.6231 28.0729 28.0729 28.6231 27.4305 29.0481C25.9919 30 23.9946 30 20 30C16.0054 30 14.0081 30 12.5695 29.0481C11.9271 28.6231 11.3769 28.0729 10.9519 27.4305C10 25.9919 10 23.9946 10 20ZM25.1769 20.0003C25.1769 22.8595 22.8591 25.1774 19.9998 25.1774C17.1406 25.1774 14.8227 22.8595 14.8227 20.0003C14.8227 17.141 17.1406 14.8231 19.9998 14.8231C22.8591 14.8231 25.1769 17.141 25.1769 20.0003ZM19.9998 23.4258C21.8917 23.4258 23.4254 21.8921 23.4254 20.0003C23.4254 18.1084 21.8917 16.5747 19.9998 16.5747C18.1079 16.5747 16.5743 18.1084 16.5743 20.0003C16.5743 21.8921 18.1079 23.4258 19.9998 23.4258ZM25.3814 15.7795C26.0533 15.7795 26.5979 15.2349 26.5979 14.563C26.5979 13.8912 26.0533 13.3466 25.3814 13.3466C24.7096 13.3466 24.1649 13.8912 24.1649 14.563C24.1649 15.2349 24.7096 15.7795 25.3814 15.7795Z" fill="#8D8BA7"/>
</svg>
