<svg width="40" height="40" viewBox="0 0 40 40" fill="none" xmlns="http://www.w3.org/2000/svg">
<rect width="40" height="40" rx="8" fill="#F2F1FA"/>
<path d="M10 12.6888C10 12.0475 10.2253 11.5184 10.6757 11.1015C11.1261 10.6846 11.7117 10.4762 12.4325 10.4762C13.1403 10.4762 13.713 10.6814 14.1506 11.0919C14.601 11.5152 14.8263 12.0667 14.8263 12.7465C14.8263 13.3622 14.6075 13.8753 14.1699 14.2857C13.7195 14.709 13.1274 14.9206 12.3938 14.9206H12.3745C11.6667 14.9206 11.094 14.709 10.6564 14.2857C10.2188 13.8624 10 13.3301 10 12.6888ZM10.251 29.5238V16.6715H14.5367V29.5238H10.251ZM16.9112 29.5238H21.1969V22.3473C21.1969 21.8983 21.2484 21.552 21.3514 21.3083C21.5315 20.8722 21.805 20.5034 22.1718 20.202C22.5386 19.9006 22.9987 19.7499 23.5521 19.7499C24.9936 19.7499 25.7143 20.7183 25.7143 22.6551V29.5238H30V22.1549C30 20.2565 29.5496 18.8167 28.6487 17.8355C27.7478 16.8543 26.5573 16.3636 25.0772 16.3636C23.417 16.3636 22.1236 17.0755 21.1969 18.4993V18.5378H21.1776L21.1969 18.4993V16.6715H16.9112C16.937 17.0819 16.9498 18.3582 16.9498 20.5002C16.9498 22.6423 16.937 25.6501 16.9112 29.5238Z" fill="#8D8BA7"/>
</svg>
