<svg width="133" height="28" viewBox="0 0 133 28" fill="none" xmlns="http://www.w3.org/2000/svg">
<path d="M8.66311 22.9514C8.85442 23.0111 9.04574 23.0529 9.23706 23.0767C9.42838 23.0887 9.61969 23.0946 9.81101 23.0946C10.2893 23.0946 10.7497 23.029 11.1921 22.8977C11.6345 22.7664 12.047 22.5814 12.4297 22.3427C12.8243 22.0921 13.171 21.7937 13.47 21.4476C13.7809 21.0895 14.032 20.6957 14.2233 20.266L17.8105 23.8644C17.3561 24.509 16.83 25.0878 16.2321 25.601C15.6462 26.1142 15.0065 26.5499 14.313 26.9079C13.6314 27.266 12.908 27.5345 12.1427 27.7136C11.3894 27.9045 10.6122 28 9.81101 28C8.45983 28 7.18637 27.7494 5.99064 27.2481C4.80686 26.7468 3.76657 26.0486 2.86977 25.1535C1.98492 24.2583 1.28542 23.1961 0.77125 21.9668C0.257083 20.7255 0 19.3649 0 17.8849C0 16.3691 0.257083 14.9847 0.77125 13.7315C1.28542 12.4783 1.98492 11.4101 2.86977 10.5269C3.76657 9.64365 4.80686 8.95737 5.99064 8.46803C7.18637 7.97869 8.45983 7.73402 9.81101 7.73402C10.6122 7.73402 11.3954 7.8295 12.1606 8.02046C12.9259 8.21142 13.6493 8.48593 14.3309 8.84399C15.0244 9.20205 15.6701 9.64365 16.268 10.1688C16.8659 10.682 17.392 11.2609 17.8464 11.9054L8.66311 22.9514ZM11.1742 12.8721C10.947 12.7886 10.7198 12.7349 10.4926 12.711C10.2773 12.6871 10.0502 12.6752 9.81101 12.6752C9.1414 12.6752 8.50766 12.8005 7.90979 13.0512C7.32388 13.2899 6.80972 13.636 6.36729 14.0895C5.93683 14.5431 5.59604 15.0921 5.34494 15.7366C5.09383 16.3691 4.96828 17.0853 4.96828 17.8849C4.96828 18.0639 4.97426 18.2668 4.98622 18.4936C5.01013 18.7204 5.04003 18.9531 5.0759 19.1918C5.12373 19.4186 5.17754 19.6394 5.23732 19.8542C5.29711 20.0691 5.37483 20.26 5.47049 20.4271L11.1742 12.8721Z" fill="#E7E6FF"/>
<path d="M40.9458 27.6419H39.762L37.8608 25.0102C37.3945 25.428 36.8983 25.8218 36.3721 26.1918C35.858 26.5499 35.3139 26.8662 34.7399 27.1407C34.166 27.4032 33.5741 27.6121 32.9643 27.7673C32.3664 27.9224 31.7566 28 31.1348 28C29.7836 28 28.5102 27.7494 27.3144 27.2481C26.1307 26.7349 25.0904 26.0307 24.1936 25.1356C23.3087 24.2285 22.6092 23.1603 22.095 21.9309C21.5809 20.6897 21.3238 19.341 21.3238 17.8849C21.3238 16.4408 21.5809 15.098 22.095 13.8568C22.6092 12.6155 23.3087 11.5413 24.1936 10.6343C25.0904 9.7272 26.1307 9.01705 27.3144 8.50384C28.5102 7.99062 29.7836 7.73402 31.1348 7.73402C31.5653 7.73402 32.0077 7.76982 32.4621 7.84143C32.9284 7.91304 33.3768 8.0324 33.8073 8.19949C34.2497 8.35465 34.6622 8.56351 35.0449 8.82609C35.4275 9.08866 35.7503 9.41091 36.0134 9.79284V0.841432H40.9458V27.6419ZM36.0134 17.8849C36.0134 17.2165 35.8819 16.572 35.6188 15.9514C35.3677 15.3188 35.0209 14.7639 34.5785 14.2864C34.1361 13.7971 33.616 13.4092 33.0181 13.1228C32.4322 12.8244 31.8044 12.6752 31.1348 12.6752C30.4652 12.6752 29.8315 12.7945 29.2336 13.0332C28.6477 13.272 28.1335 13.6181 27.6911 14.0716C27.2606 14.5132 26.9198 15.0563 26.6687 15.7008C26.4176 16.3453 26.2921 17.0733 26.2921 17.8849C26.2921 18.5891 26.4176 19.2575 26.6687 19.89C26.9198 20.5226 27.2606 21.0776 27.6911 21.555C28.1335 22.0324 28.6477 22.4084 29.2336 22.6829C29.8315 22.9574 30.4652 23.0946 31.1348 23.0946C31.8044 23.0946 32.4322 22.9514 33.0181 22.665C33.616 22.3666 34.1361 21.9787 34.5785 21.5013C35.0209 21.0119 35.3677 20.4569 35.6188 19.8363C35.8819 19.2038 36.0134 18.5533 36.0134 17.8849Z" fill="#E7E6FF"/>
<path d="M61.0141 25.4041C60.6195 25.7621 60.195 26.1023 59.7406 26.4246C59.2982 26.7349 58.8319 27.0094 58.3416 27.2481C57.8514 27.4749 57.3432 27.6539 56.8171 27.7852C56.3029 27.9284 55.7768 28 55.2387 28C54.0549 28 52.9429 27.7911 51.9026 27.3734C50.8623 26.9557 49.9476 26.3649 49.1584 25.601C48.3811 24.8252 47.7653 23.8883 47.311 22.7903C46.8685 21.6803 46.6473 20.439 46.6473 19.0665V8.46803H51.5259V19.0665C51.5259 19.711 51.6216 20.2899 51.8129 20.8031C52.0162 21.3043 52.2852 21.728 52.62 22.0742C52.9548 22.4203 53.3434 22.6829 53.7859 22.8619C54.2402 23.0409 54.7245 23.1304 55.2387 23.1304C55.7409 23.1304 56.2132 23.0171 56.6556 22.7903C57.11 22.5516 57.5046 22.2413 57.8394 21.8593C58.1742 21.4774 58.4373 21.0477 58.6286 20.5703C58.8199 20.081 58.9156 19.5797 58.9156 19.0665V8.46803H63.8121V27.6419H62.6283L61.0141 25.4041Z" fill="#E7E6FF"/>
<path d="M74.6971 27.6419H69.7647V0.841432H74.6971V27.6419Z" fill="#E7E6FF"/>
<path d="M87.1598 3.25831C87.1598 3.71185 87.0701 4.13555 86.8908 4.52941C86.7234 4.92327 86.4902 5.2694 86.1913 5.56778C85.8923 5.85422 85.5396 6.08696 85.133 6.26599C84.7384 6.43308 84.3139 6.51662 83.8596 6.51662C83.4052 6.51662 82.9747 6.43308 82.5682 6.26599C82.1736 6.08696 81.8268 5.85422 81.5279 5.56778C81.2409 5.2694 81.0077 4.92327 80.8284 4.52941C80.661 4.13555 80.5773 3.71185 80.5773 3.25831C80.5773 2.81671 80.661 2.39898 80.8284 2.00512C81.0077 1.59932 81.2409 1.2532 81.5279 0.966752C81.8268 0.668372 82.1736 0.435635 82.5682 0.268542C82.9747 0.0895141 83.4052 0 83.8596 0C84.3139 0 84.7384 0.0895141 85.133 0.268542C85.5396 0.435635 85.8923 0.668372 86.1913 0.966752C86.4902 1.2532 86.7234 1.59932 86.8908 2.00512C87.0701 2.39898 87.1598 2.81671 87.1598 3.25831ZM86.3168 27.6419H81.3844V8.46803H86.3168V27.6419Z" fill="#E7E6FF"/>
<path d="M97.1659 27.6419H92.2694V8.46803H93.4532L95.0674 10.3299C95.8566 9.61381 96.7474 9.06479 97.7399 8.68287C98.7443 8.289 99.7906 8.09207 100.879 8.09207C102.051 8.09207 103.157 8.31884 104.197 8.77238C105.237 9.21398 106.146 9.82864 106.923 10.6164C107.7 11.3922 108.31 12.3052 108.753 13.3555C109.207 14.3939 109.434 15.5038 109.434 16.6854V27.6419H104.538V16.6854C104.538 16.1841 104.442 15.7127 104.251 15.2711C104.059 14.8176 103.796 14.4237 103.462 14.0895C103.127 13.7553 102.738 13.4928 102.296 13.3018C101.853 13.1108 101.381 13.0153 100.879 13.0153C100.365 13.0153 99.8803 13.1108 99.4259 13.3018C98.9715 13.4928 98.5769 13.7553 98.2421 14.0895C97.9073 14.4237 97.6442 14.8176 97.4529 15.2711C97.2616 15.7127 97.1659 16.1841 97.1659 16.6854V27.6419Z" fill="#E7E6FF"/>
<path d="M120.068 27.6419H115.136V0.841432H120.068V17.7417L127.368 8.50384H133L126.633 16.4885L133 27.6419H127.368L123.476 20.6777L120.068 25.1893V27.6419Z" fill="#E7E6FF"/>
</svg>
