<svg width="365" height="324" viewBox="0 0 365 324" fill="none" xmlns="http://www.w3.org/2000/svg">
<g filter="url(#filter0_d_506_15033)">
<path fill-rule="evenodd" clip-rule="evenodd" d="M158.262 161.77C123.738 163.319 121.377 165.975 121.377 201.974C121.451 233.473 124.106 244.391 131.852 244.391C132.294 244.391 135.245 245.276 138.417 246.309C154.278 251.621 230.407 245.94 233.58 239.154C236.088 233.842 237.415 190.466 235.497 178.368C233.505 166.122 228.563 162.286 215.506 162.581C204.293 162.876 205.99 167.597 217.35 167.597C225.834 167.597 225.907 167.819 226.055 202.49C226.202 235.686 226.277 234.875 221.186 236.129C211.892 238.416 158.261 238.932 135.245 239.301C133.106 235.244 132.663 236.572 130.524 204.408C128.532 173.573 128.606 173.425 150.22 170.548C165.343 168.556 168.073 168.335 184.523 167.893C199.793 167.45 202.228 167.155 202.228 166.048C202.154 162.655 182.015 160.663 158.262 161.77ZM216.17 174.237C213.662 176.228 207.908 182.351 189.023 202.49C182.752 209.203 182.974 209.203 176.556 204.703C166.745 197.917 158.262 192.753 151.622 186.777C142.18 178.294 136.204 174.974 134.139 177.04C132.885 178.294 143.581 187.073 157.818 201.458L164.015 207.728C163.794 207.949 151.106 217.76 145.425 225.432C141.589 230.596 145.647 231.555 149.04 229.121C152.581 226.465 158.483 219.9 167.187 210.9L170.286 212.154C175.228 214.146 184.744 212.818 188.064 209.72C190.424 207.507 192.564 206.769 192.564 208.097C192.564 209.056 207.982 224.252 213.441 228.973C216.539 231.629 225.686 234.58 217.94 225.58C212.26 219.088 201.048 207.802 196.99 204.998C196.031 204.335 195.367 203.671 195.515 203.523C206.211 196.589 217.276 184.859 221.112 178.073C225.907 169.884 217.424 173.278 216.17 174.237Z" fill="#293244"/>
<path fill-rule="evenodd" clip-rule="evenodd" d="M98.8405 136.036C84.4902 142.985 83.9737 144.541 90.5351 159.799C96.3076 173.136 99.4229 177.28 102.706 175.868C102.893 175.787 104.306 175.625 105.838 175.484C113.529 174.845 144.76 158.561 144.868 155.107C144.963 152.398 137.619 133.772 134.601 128.994C131.525 124.167 128.731 123.442 123.251 125.946C118.552 128.115 120.132 129.807 124.947 127.736C128.543 126.19 128.614 126.271 134.996 140.939C141.109 154.982 140.993 154.624 139.064 156.084C135.541 158.747 112.904 168.741 103.217 173.092C101.57 171.762 101.625 172.406 94.8557 159.164C88.3912 146.457 88.3957 146.381 97.0323 141.223C103.079 137.622 104.195 137.031 111.087 133.845C117.479 130.874 118.457 130.305 118.255 129.836C117.605 128.411 108.707 131.238 98.8405 136.036ZM125.657 130.765C124.957 132.067 123.634 135.711 119.3 147.689C117.866 151.677 117.96 151.636 114.42 150.899C109.024 149.811 104.488 149.168 100.585 147.846C95.0362 145.971 91.8985 145.653 91.3995 146.905C91.0966 147.665 97.2301 149.436 105.886 152.938L109.656 154.466C109.602 154.601 106.013 161.072 105.004 165.359C104.319 168.246 106.213 167.913 107.208 166.263C108.225 164.492 109.529 160.634 111.578 155.233L113.12 155.2C115.578 155.143 119.369 152.846 120.212 150.927C120.809 149.559 121.581 148.857 121.823 149.419C121.998 149.826 131.302 153.457 134.477 154.463C136.274 155.024 140.689 154.607 135.765 152.204C132.174 150.488 125.365 147.748 123.134 147.299C122.607 147.193 122.205 147.032 122.24 146.943C125.51 142.054 128.062 135.066 128.451 131.491C128.991 127.146 126.014 130.13 125.657 130.765Z" fill="#4DFFC9"/>
<path fill-rule="evenodd" clip-rule="evenodd" d="M218.498 103.8C194.373 101.595 192.481 103.216 189.061 128.218C186.119 150.103 186.926 157.938 192.306 158.674C192.613 158.716 194.578 159.611 196.683 160.63C207.194 165.826 260.609 169.114 263.457 164.702C265.704 161.251 270.747 131.251 270.564 122.666C270.344 113.972 267.276 110.838 258.18 109.802C250.364 108.942 251.094 112.382 258.984 113.461C264.876 114.267 264.906 114.428 261.714 138.523C258.663 161.593 258.791 161.036 255.137 161.424C248.464 162.129 211.167 157.392 195.146 155.461C194.046 152.44 193.612 153.32 195.182 130.778C196.729 109.173 196.794 109.077 212.079 109.133C222.772 109.186 224.689 109.292 236.156 110.547C246.804 111.691 248.523 111.717 248.628 110.949C248.899 108.585 235.101 105.288 218.498 103.8ZM257.534 117.96C255.602 119.105 251.024 122.811 235.994 135.004C231.001 139.071 231.155 139.092 227.125 135.357C220.956 129.711 215.555 125.318 211.511 120.538C205.759 113.748 201.924 110.875 200.293 112.113C199.303 112.865 205.898 119.979 214.42 131.322L218.128 136.266C217.953 136.399 208.208 142.007 203.534 146.796C200.38 150.018 203.107 151.07 205.695 149.701C208.406 148.193 213.129 144.194 220.03 138.77L222.062 139.936C225.306 141.789 232.041 141.771 234.641 139.934C236.491 138.621 238.047 138.312 237.921 139.235C237.83 139.901 247.094 151.92 250.437 155.718C252.337 157.857 258.409 160.775 253.885 153.788C250.556 148.74 243.841 139.836 241.29 137.503C240.687 136.951 240.289 136.427 240.405 136.338C248.493 132.539 257.292 125.443 260.601 121.094C264.71 115.863 258.496 117.413 257.534 117.96Z" fill="#9E3DFF"/>
</g>
<defs>
<filter id="filter0_d_506_15033" x="-6.16016" y="0" width="370.751" height="357" filterUnits="userSpaceOnUse" color-interpolation-filters="sRGB">
<feFlood flood-opacity="0" result="BackgroundImageFix"/>
<feColorMatrix in="SourceAlpha" type="matrix" values="0 0 0 0 0 0 0 0 0 0 0 0 0 0 0 0 0 0 127 0" result="hardAlpha"/>
<feOffset/>
<feGaussianBlur stdDeviation="37.5"/>
<feComposite in2="hardAlpha" operator="out"/>
<feColorMatrix type="matrix" values="0 0 0 0 0.152941 0 0 0 0 0.188235 0 0 0 0 0.262745 0 0 0 0.2 0"/>
<feBlend mode="normal" in2="BackgroundImageFix" result="effect1_dropShadow_506_15033"/>
<feBlend mode="normal" in="SourceGraphic" in2="effect1_dropShadow_506_15033" result="shape"/>
</filter>
</defs>
</svg>
