<svg width="167" height="169" viewBox="0 0 167 169" fill="none" xmlns="http://www.w3.org/2000/svg">
<path fill-rule="evenodd" clip-rule="evenodd" d="M147.589 3.57874C145.26 4.97632 140.02 9.98439 136.06 14.643C130.819 20.6992 128.256 22.9123 126.859 22.3299C92.3852 7.88812 54.9996 15.1089 34.5014 28.3861L31.3567 30.4825L23.204 22.3299C12.2562 11.4985 -13.1336 6.95629 10.7419 31.8801L20.1758 41.6632C19.3605 44.4585 -16.6273 95.9365 19.1277 139.728L24.4853 146.366L19.1277 153.937C8.87869 168.611 20.4087 173.27 33.5694 159.643L37.4131 155.684L42.7701 158.478C85.6298 180.258 133.963 154.053 134.08 153.937L138.738 159.061C146.658 167.912 154.927 170.824 161.799 167.098C170.301 162.555 150.851 149.394 149.104 147.648L143.98 142.64L146.076 139.495C172.28 99.43 172.746 57.6194 147.008 34.6753L142.815 30.9483C145.145 27.9202 147.706 24.4261 155.858 15.2253C166.574 3.11291 161.216 -4.80679 147.589 3.57874ZM118.939 33.9766C118.59 34.6753 82.1354 76.7192 81.3206 76.6034C80.1558 76.4868 44.8667 44.5748 43.5856 42.4785C42.4209 40.4985 44.9832 37.587 49.4089 34.5589C84.465 11.2657 121.385 30.0167 118.939 33.9766ZM135.943 46.2055C148.638 64.1416 149.919 95.3541 138.855 117.133C131.983 130.527 132.799 130.294 124.18 121.209C120.104 116.9 92.6176 88.4829 92.6176 88.4829C92.6176 88.4829 120.103 56.8037 124.296 51.9122C133.148 41.6631 132.799 41.7798 135.943 46.2055ZM48.4773 67.7517C64.2004 81.7275 67.1115 85.1052 70.955 89.0653L53.1358 110.728C32.4051 135.884 34.6177 134.487 30.192 125.286C21.1077 106.535 21.1077 82.7756 30.3085 61.2296C33.4531 54.0084 32.638 53.776 48.4773 67.7517ZM122.433 143.105C122.317 143.105 83.8826 174.784 49.2923 147.181L45.9149 144.503L83.0678 100.828C111.602 131.109 111.718 131.343 122.433 143.105Z" fill="#E7E5FF"/>
</svg>
