<svg width="59" height="38" viewBox="0 0 59 38" fill="none" xmlns="http://www.w3.org/2000/svg">
<rect x="4.59839" y="0.000244141" width="21.6429" height="18.2811" rx="2.94208" fill="url(#paint0_linear_516_7955)"/>
<g filter="url(#filter0_d_516_7955)">
<path d="M18.4792 30C-0.106693 30 4.42976 5.93769 4.62625 0.000244141H14.0085C10.1163 18.5515 23.1524 25.8239 23.4897 26.3069C23.6534 26.5413 24.0171 28.3381 23.4897 30H18.4792Z" fill="url(#paint1_linear_516_7955)"/>
</g>
<rect x="54.3347" y="30" width="21.6282" height="18.2811" rx="2.60964" transform="rotate(180 54.3347 30)" fill="#4DFFC9"/>
<g filter="url(#filter1_d_516_7955)">
<path d="M42.4697 4.87746e-05C58.4869 4.73743e-05 54.5774 24.0623 54.4081 29.9998L46.3225 29.9998C50.0415 10.5978 38.7209 3.4178 38.4302 2.9348C38.2891 2.70043 37.7548 3.26089 38.1516 4.91521e-05L42.4697 4.87746e-05Z" fill="#4DFFC9"/>
</g>
<defs>
<filter id="filter0_d_516_7955" x="0" y="0.000244141" width="27.7649" height="37.9998" filterUnits="userSpaceOnUse" color-interpolation-filters="sRGB">
<feFlood flood-opacity="0" result="BackgroundImageFix"/>
<feColorMatrix in="SourceAlpha" type="matrix" values="0 0 0 0 0 0 0 0 0 0 0 0 0 0 0 0 0 0 127 0" result="hardAlpha"/>
<feOffset dy="4"/>
<feGaussianBlur stdDeviation="2"/>
<feComposite in2="hardAlpha" operator="out"/>
<feColorMatrix type="matrix" values="0 0 0 0 0 0 0 0 0 0 0 0 0 0 0 0 0 0 0.09 0"/>
<feBlend mode="normal" in2="BackgroundImageFix" result="effect1_dropShadow_516_7955"/>
<feBlend mode="normal" in="SourceGraphic" in2="effect1_dropShadow_516_7955" result="shape"/>
</filter>
<filter id="filter1_d_516_7955" x="34.0076" y="0" width="24.9402" height="37.9998" filterUnits="userSpaceOnUse" color-interpolation-filters="sRGB">
<feFlood flood-opacity="0" result="BackgroundImageFix"/>
<feColorMatrix in="SourceAlpha" type="matrix" values="0 0 0 0 0 0 0 0 0 0 0 0 0 0 0 0 0 0 127 0" result="hardAlpha"/>
<feOffset dy="4"/>
<feGaussianBlur stdDeviation="2"/>
<feComposite in2="hardAlpha" operator="out"/>
<feColorMatrix type="matrix" values="0 0 0 0 0 0 0 0 0 0 0 0 0 0 0 0 0 0 0.09 0"/>
<feBlend mode="normal" in2="BackgroundImageFix" result="effect1_dropShadow_516_7955"/>
<feBlend mode="normal" in="SourceGraphic" in2="effect1_dropShadow_516_7955" result="shape"/>
</filter>
<linearGradient id="paint0_linear_516_7955" x1="5.01396" y1="9.53223" x2="57.8312" y2="7.24827" gradientUnits="userSpaceOnUse">
<stop stop-color="#9E3DFF"/>
<stop offset="1" stop-color="#D2A6FF"/>
</linearGradient>
<linearGradient id="paint1_linear_516_7955" x1="4.37951" y1="15.6425" x2="52.6758" y2="14.4802" gradientUnits="userSpaceOnUse">
<stop stop-color="#9E3DFF"/>
<stop offset="1" stop-color="#D2A6FF"/>
</linearGradient>
</defs>
</svg>
