<svg width="80" height="40" viewBox="0 0 80 40" fill="none" xmlns="http://www.w3.org/2000/svg">
<path d="M29 15.75H11C10.59 15.75 10.25 15.41 10.25 15C10.25 14.59 10.59 14.25 11 14.25H29C29.41 14.25 29.75 14.59 29.75 15C29.75 15.41 29.41 15.75 29 15.75Z" fill="#C4C4C4"/>
<path d="M29 20.75H11C10.59 20.75 10.25 20.41 10.25 20C10.25 19.59 10.59 19.25 11 19.25H29C29.41 19.25 29.75 19.59 29.75 20C29.75 20.41 29.41 20.75 29 20.75Z" fill="#C4C4C4"/>
<path d="M29 25.75H11C10.59 25.75 10.25 25.41 10.25 25C10.25 24.59 10.59 24.25 11 24.25H29C29.41 24.25 29.75 24.59 29.75 25C29.75 25.41 29.41 25.75 29 25.75Z" fill="#C4C4C4"/>
<rect x="40.5" y="4.5" width="31" height="31" rx="15.5" fill="#E4E4E4"/>
<path d="M56 10C53.38 10 51.25 12.13 51.25 14.75C51.25 17.32 53.26 19.4 55.88 19.49C55.96 19.48 56.04 19.48 56.1 19.49C56.12 19.49 56.13 19.49 56.15 19.49C56.16 19.49 56.16 19.49 56.17 19.49C58.73 19.4 60.74 17.32 60.75 14.75C60.75 12.13 58.62 10 56 10Z" fill="white"/>
<path d="M61.08 22.15C58.29 20.29 53.74 20.29 50.93 22.15C49.66 23 48.96 24.15 48.96 25.38C48.96 26.61 49.66 27.75 50.92 28.59C52.32 29.53 54.16 30 56 30C57.84 30 59.68 29.53 61.08 28.59C62.34 27.74 63.04 26.6 63.04 25.36C63.03 24.13 62.34 22.99 61.08 22.15Z" fill="white"/>
<rect x="40.5" y="4.5" width="31" height="31" rx="15.5" stroke="#C4C4C4"/>
<rect x="0.5" y="0.5" width="79" height="39" rx="19.5" stroke="#E4E4E4"/>
</svg>
